# xmcd
#
# Track frame offsets: 
#        150
#        16034
#        32039
#        44657
#        63881
#        76736
#        97320
#        116895
#        131008
#        148586
#        162601
#        175524
#        192638
#        222660
#
# Disc length: 3588 seconds
#
# Revision: 1
# Processed by: cddbd v1.5.1PL0 Copyright (c) Steve Scherf et al.
# Submitted via: ExactAudioCopy v0.90b4
#
DISCID=cf0e020e
DTITLE=Rasputin - Achtung!
DYEAR=2005
DGENRE=Rap
TTITLE0=01 - Culture-Clash feat. Hellen Schmidt
TTITLE1=02 - Vibecatcher feat. Laas Unlimited
TTITLE2=03 - Ich bin der Größte
TTITLE3=04 - Oase Erotica
TTITLE4=05 - Meditation
TTITLE5=06 - Geisterstadt feat. Laas Unlimited and Clueso
TTITLE6=07 - Rasarch and Punkabraut feat. Architekt
TTITLE7=08 - Gleisfieber
TTITLE8=09 - Auf einmal steht es vor eim
TTITLE9=10 - Funkmaschine
TTITLE10=11 - Alkohol am Steuer
TTITLE11=12 - Schmetterling feat. Clueso , Dirt M and Norman Bates
TTITLE12=13 - Teamgeist feat. SeraFinale
TTITLE13=Vibecatcher (Video) (Data Track)
EXTD=
EXTT0=
EXTT1=
EXTT2=
EXTT3=
EXTT4=
EXTT5=
EXTT6=
EXTT7=
EXTT8=
EXTT9=
EXTT10=
EXTT11=
EXTT12=
EXTT13=
PLAYORDER=
